<?xml version="1.0" encoding="UTF-8"?>
<svg width="46px" height="46px" viewBox="0 0 46 46" version="1.1" xmlns="http://www.w3.org/2000/svg" xmlns:xlink="http://www.w3.org/1999/xlink">
    <!-- Generator: Sketch 50.2 (55047) - http://www.bohemiancoding.com/sketch -->
    <title>Group 3</title>
    <desc>Created with Sketch.</desc>
    <defs></defs>
    <g id="Page-1" stroke="none" stroke-width="1" fill="none" fill-rule="evenodd">
        <g id="Artboard-1" transform="translate(-13.000000, 0.000000)">
            <g id="Group-3" transform="translate(13.000000, 0.000000)">
                <path d="M34.9982788,7.82048141 C33.033416,7.82048141 31.2064383,7.77409687 29.3825023,7.83560681 C27.9377502,7.88400807 26.7910733,9.01034571 26.7454496,10.4593584 C26.6785348,12.5789302 26.728214,14.7015272 26.728214,16.9269767 L34.6738432,16.9269767 C34.5410274,18.2408693 34.4396413,19.4418255 34.2936453,20.6367316 C34.14258,21.8770139 33.930683,23.1092293 33.7826593,24.3485032 C33.7147306,24.9242765 33.5139861,25.1733413 32.8711982,25.1531741 C31.128371,25.1007394 29.3825023,25.1703163 27.6406889,25.1017478 C26.7880318,25.0684719 26.6075645,25.3699715 26.6116199,26.1645588 C26.6369665,32.3881541 26.618717,38.610741 26.6136477,44.8343363 C26.6136477,45.2003709 26.6136477,45.5664054 26.6136477,46 L18.1691987,46 C18.1691987,45.6500992 18.1691987,45.3193573 18.1691987,44.9886153 C18.1722403,38.675276 18.1631156,32.3629451 18.1955591,26.0506142 C18.1996146,25.3054364 18.0120503,25.0735137 17.2455713,25.0946893 C15.2198769,25.1481323 13.1911408,25.1128398 11.1106979,25.1128398 C11.0721712,24.8355409 11.0174227,24.6187436 11.0174227,24.4019463 C11.0103257,22.1553211 11.0275613,19.908696 11.0001871,17.6630792 C10.99309,17.0681471 11.1867375,16.8775671 11.7879571,16.8866424 C13.8694139,16.9189099 15.9508707,16.8987427 18.1823789,16.8987427 C18.1823789,16.4631313 18.1762958,16.0799547 18.1833928,15.6977864 C18.2442245,12.749343 17.9137057,9.77367391 18.6822124,6.87161505 C19.0786321,5.37823452 19.9069566,4.11576833 20.9867187,2.99648921 C23.881292,-0.00237216957 27.5758018,-0.149592668 31.3757531,0.0672046411 C32.4017805,0.125689496 33.4288218,0.207366622 34.4487661,0.334419928 C34.6484967,0.359628918 34.9719184,0.63995288 34.97496,0.80633221 C35.0094312,3.07413289 34.9982788,5.34294194 34.9982788,7.82048141" id="Fill-3" fill="#ffffff"></path>
            </g>
        </g>
    </g>
</svg>