<?xml version="1.0" encoding="UTF-8"?>
<svg width="46px" height="46px" viewBox="0 0 46 46" version="1.1" xmlns="http://www.w3.org/2000/svg" xmlns:xlink="http://www.w3.org/1999/xlink">
    <!-- Generator: Sketch 50.2 (55047) - http://www.bohemiancoding.com/sketch -->
    <title>Group</title>
    <desc>Created with Sketch.</desc>
    <defs></defs>
    <g id="Page-1" stroke="none" stroke-width="1" fill="none" fill-rule="evenodd">
        <g id="Artboard-1" transform="translate(-188.000000, 0.000000)">
            <g id="Group" transform="translate(188.000000, 0.000000)">
                <path d="M30.9203424,11.4779607 C30.9143282,12.9154548 31.9066824,13.9619987 33.294976,13.9820474 C34.7013123,14.0030986 35.8259805,12.9244768 35.7898949,11.5080338 C35.7568164,10.2018588 34.9799734,9.02900788 33.4413232,9.08113459 C31.8846301,9.06208829 30.9273591,9.97330322 30.9203424,11.4779607 M15.6310705,22.139877 C15.3343666,25.6183322 18.0778752,29.0115803 21.9330211,29.2341213 C25.841293,29.4596695 28.9306221,26.698959 29.1822189,22.8947118 C29.4227897,19.274913 26.8897804,15.9638647 22.7870472,15.7072409 C19.1995362,15.4826951 15.7693986,18.2674642 15.6310705,22.139877 M11.8521053,22.504764 C11.8420815,16.7247142 16.6595103,11.9410864 22.3480056,11.8959767 C28.0164533,11.8518695 32.9321151,16.5262317 32.9411365,22.3814643 C32.9511603,28.400094 28.1557839,33.0082953 22.4642814,33.0654342 C16.727672,33.1235755 11.8641338,28.4492134 11.8521053,22.504764 M5.7766921,22.5087737 C5.77468735,22.5087737 5.77268259,22.5087737 5.77067784,22.5087737 C5.77067784,25.53513 5.66843528,28.5664985 5.80074918,31.5878426 C5.9230393,34.3936628 7.02966463,36.7183134 9.66190932,38.1507954 C11.0241411,38.8925985 12.4795939,39.019908 13.9350468,39.0690274 C17.3882391,39.1863125 20.8474457,39.2624977 24.300638,39.2063612 C27.3719242,39.1572418 30.455239,39.0379519 33.5014659,38.6780771 C34.6201197,38.5457555 35.7858854,37.7979377 36.6820113,37.0380907 C38.1284428,35.8091034 38.7318744,34.0157442 38.887243,32.167251 C39.088721,29.7634078 39.202992,27.3445282 39.1909635,24.9326656 C39.170916,20.8677849 39.112778,16.7988945 38.8932572,12.7410309 C38.7699647,10.4654996 37.7705939,8.54483098 35.7969115,7.16648056 C34.4657535,6.23722178 32.9772221,5.93348347 31.4766622,5.91644204 C25.5024892,5.84627148 19.5263114,5.85529341 13.5521384,5.93749321 C12.3633181,5.9535322 11.0993194,6.23020472 10.0127416,6.71037188 C7.1178739,7.9904835 5.92003216,10.4995825 5.80275393,13.5048876 C5.6854757,16.5021732 5.7766921,19.5074783 5.7766921,22.5087737 M42.7273532,22.3574058 C42.7273532,25.3085793 42.7524126,28.2597528 42.7193342,31.209924 C42.6932723,33.5887062 42.162012,35.8562179 40.8338611,37.8610912 C38.9944974,40.6398456 36.3241624,42.2046493 33.0794647,42.6567482 C31.0496492,42.9394354 28.9747267,42.9895572 26.9208541,42.9925645 C22.1896299,43.000584 17.4543961,43.0366717 12.7301885,42.8281649 C9.47346225,42.6848164 6.62570629,41.3184953 4.51971006,38.7432355 C3.05222864,36.9488739 2.21223585,34.7836107 2.15409793,32.5060746 C1.99672458,26.3300623 1.96164135,20.1480354 2.04082921,13.9700182 C2.06187915,12.2759002 2.41672097,10.4965752 3.03518821,8.91974229 C4.44252695,5.33202147 7.26121396,3.20284599 10.9930673,2.43698438 C12.7191623,2.08312424 14.5264499,2.0219756 16.2976518,2.00994636 C21.4117845,1.97586352 26.5259172,2.03901703 31.6400499,2.05505601 C33.7901507,2.06207307 35.7969115,2.72969589 37.5651064,3.81733967 C40.5341501,5.64478171 42.2913187,8.41250934 42.5559465,11.9180304 C42.8175672,15.3874636 42.8606695,18.8739384 43,22.353396 C42.909786,22.3543985 42.8185696,22.3564033 42.7273532,22.3574058" id="Fill-6" fill="#ffffff"></path>
            </g>
        </g>
    </g>
</svg>