<?xml version="1.0" encoding="iso-8859-1"?>
<!-- Generator: Adobe Illustrator 19.0.0, SVG Export Plug-In . SVG Version: 6.00 Build 0)  -->
<svg version="1.1" id="Layer_1" xmlns="http://www.w3.org/2000/svg" xmlns:xlink="http://www.w3.org/1999/xlink" x="0px" y="0px"
	 viewBox="0 0 496.158 496.158" style="enable-background:new 0 0 496.158 496.158;" xml:space="preserve">
<path style="fill:#48A1AF;" d="M248.082,0.002C111.07,0.002,0,111.062,0,248.085c0,137.001,111.07,248.07,248.082,248.07
	c137.006,0,248.076-111.069,248.076-248.07C496.158,111.062,385.088,0.002,248.082,0.002z"/>
<path style="fill:#EDC92F;" d="M156.293,174.888v303.723c28.393,11.314,59.362,17.544,91.789,17.544
	c32.439,0,63.42-6.235,91.82-17.558V174.888H156.293z"/>
<path style="fill:#F4D44E;" d="M156.293,174.888v303.723c28.391,11.313,59.358,17.543,91.783,17.544V174.888H156.293z"/>
<path style="fill:#3F3F3D;" d="M162.381,133.852c-4.205,2.102-3.504,9.81,0,11.912s14.715,6.306,14.715,6.306v19.619l42.742,0.701
	V141.56C219.838,141.559,166.586,131.749,162.381,133.852z"/>
<path style="fill:#BABAB6;" d="M308.787,85.971h-83.031v14.715h83.031c27.326,0,25.225-7.677,25.225-7.677
	S336.113,85.971,308.787,85.971z"/>
<polygon style="fill:#D6D6D0;" points="255.174,85.971 231.144,85.971 255.726,88.161 "/>
<circle style="fill:#DBDBDB;" cx="231.509" cy="106.528" r="24.524"/>
<circle style="fill:#BFBFBE;" cx="231.509" cy="106.528" r="12.761"/>
<path style="fill:#D6D6D0;" d="M308.787,85.971h-53.613l0.553,2.19V97l-26.516,3.686h79.576c27.326,0,25.225-7.677,25.225-7.677
	S336.113,85.971,308.787,85.971z"/>
<path style="fill:#DDDDDD;" d="M334.049,90.76l-0.027,0.009c-0.283,2.744-3.133,9.917-25.234,9.917h-80.117
	c-15.186,5.727-13.736,22.656-13.736,22.656v47.646l119.117,0.701V98.818L334.049,90.76z"/>
<path style="fill:#727069;" d="M331.633,167.911H164.527c-4.645,0-8.41,3.764-8.41,8.408v23.121h183.924v-23.121
	C340.041,171.676,336.275,167.911,331.633,167.911z"/>
<ellipse style="fill:#BABAB6;" cx="304.619" cy="92.049" rx="14.949" ry="4.437"/>
<rect x="224.039" y="146.468" style="fill:#AFAFAE;" width="23.824" height="14.714"/>
<g>
</g>
<g>
</g>
<g>
</g>
<g>
</g>
<g>
</g>
<g>
</g>
<g>
</g>
<g>
</g>
<g>
</g>
<g>
</g>
<g>
</g>
<g>
</g>
<g>
</g>
<g>
</g>
<g>
</g>
</svg>
