<?xml version="1.0" encoding="UTF-8"?>
<svg width="46px" height="46px" viewBox="0 0 46 46" version="1.1" xmlns="http://www.w3.org/2000/svg" xmlns:xlink="http://www.w3.org/1999/xlink">
    <!-- Generator: Sketch 50.2 (55047) - http://www.bohemiancoding.com/sketch -->
    <title>Group 4</title>
    <desc>Created with Sketch.</desc>
    <defs></defs>
    <g id="Page-1" stroke="none" stroke-width="1" fill="none" fill-rule="evenodd">
        <g id="Artboard-1" transform="translate(-100.000000, 0.000000)">
            <g id="Group-4" transform="translate(100.000000, 0.000000)">
                <path d="M22.8810096,15.529078 C22.8810096,14.3390329 22.7688301,13.2390669 22.9070513,12.1711291 C23.119391,10.5276859 23.7453926,9.03737714 24.7900641,7.69219584 C26.1171875,5.98469636 27.8028846,4.82367679 29.8501603,4.32123556 C32.2189503,3.73972489 34.5737179,3.88585322 36.7101362,5.27307143 C37.2009215,5.59135094 37.7357772,5.87259792 38.1494391,6.27495126 C39.2502003,7.34589172 40.3790064,6.68831426 41.4497196,6.33400311 C42.5614984,5.96668054 43.6101763,5.40618833 44.7560096,4.89974359 C44.135016,7.00659376 42.890024,8.57096755 41.0841346,9.72297922 C41.1131811,9.78403283 41.1422276,9.84508645 41.1722756,9.90714094 C42.7718349,9.48577091 44.3713942,9.06440087 46,8.63602468 C45.7005208,9.05439208 45.4310897,9.55883507 45.0444712,9.94617522 C44.0028045,10.9880902 42.9050481,11.973956 41.8483574,13.0008578 C41.7091346,13.1359764 41.5989583,13.3861961 41.6079728,13.577364 C41.7431891,16.5860061 41.151242,19.5035682 40.3129006,22.350068 C39.8291266,23.9955129 39.0038061,25.5488771 38.2475962,27.1032421 C37.7718349,28.0800999 37.1778846,29.0079147 36.5659054,29.9107075 C36.0220353,30.7134124 35.4080529,31.4750813 34.7720353,32.2107273 C34.1340144,32.949376 33.4639423,33.6690079 32.7487981,34.3325907 C32.1047676,34.9291145 31.4026442,35.47059 30.6864984,35.9790365 C29.8902244,36.5445331 29.0598958,37.0649902 28.2225561,37.5684323 C26.239383,38.76148 24.0969551,39.5431664 21.8613782,40.1496991 C18.8786058,40.9594102 15.8457532,41.1435719 12.8088942,40.9003583 C9.89623397,40.6671535 7.04667468,40.0065734 4.3984375,38.6734026 C3.27063301,38.1059043 2.13080929,37.5634279 1,36.9068513 C5.8818109,37.1951044 10.3028846,36.008062 14.3653846,32.9894111 C10.1977163,32.4889717 7.35216346,30.411147 5.77363782,26.409633 L9.671875,26.409633 C9.68689904,26.3365688 9.70192308,26.2625038 9.71694712,26.1894396 C7.58353365,25.7140221 5.91786859,24.5510008 4.56370192,22.8835364 C3.18149038,21.1800405 2.61258013,19.2283265 2.53245192,16.9873586 C3.21153846,17.2726091 3.77644231,17.5618631 4.37339744,17.7470257 C4.97435897,17.9341901 5.60737179,18.0182639 6.29947917,18.0532947 C4.59975962,16.4368752 3.32772436,14.6372948 2.82191506,12.3222618 C2.31109776,9.98320774 2.8369391,7.87135317 3.84154647,5.64840104 C8.88161058,11.6556765 15.2247596,14.842475 22.8810096,15.529078" id="Fill-1" fill="#ffffff"></path>
            </g>
        </g>
    </g>
</svg>