<?xml version="1.0" encoding="UTF-8"?>
<svg width="46px" height="46px" viewBox="0 0 46 46" version="1.1" xmlns="http://www.w3.org/2000/svg" xmlns:xlink="http://www.w3.org/1999/xlink">
    <!-- Generator: Sketch 50.2 (55047) - http://www.bohemiancoding.com/sketch -->
    <title>Group 2</title>
    <desc>Created with Sketch.</desc>
    <defs></defs>
    <g id="Page-1" stroke="none" stroke-width="1" fill="none" fill-rule="evenodd">
        <g id="Artboard-1" transform="translate(-275.000000, 0.000000)">
            <g id="Group-2" transform="translate(275.000000, 0.000000)">
                <path d="M17.7079883,30.2053065 L17.7079883,15.7946935 L31.3257478,23 L17.7079883,30.2053065 Z M44.5954721,14.8336484 C44.3553783,12.3515393 43.4171965,9.3094113 39.3477067,8.60761546 C35.816915,7.99898732 30.1373842,8.00000001 23.5005044,8.00000001 C16.8636246,8.00000001 11.1840938,7.99898732 7.65229326,8.60761546 C3.58280352,9.3094113 2.6456305,12.3515393 2.40452786,14.8336484 C2.21184751,16.8225763 2,19.852552 2,23 C2,26.147448 2.21184751,29.176411 2.40452786,31.1653389 C2.6456305,33.647448 3.58280352,36.689576 7.65229326,37.3913719 C11.1840938,38.0010127 16.8636246,38 23.5005044,38 C30.1373842,38 35.816915,38.0010127 39.3477067,37.3913719 C43.4171965,36.689576 44.3553783,33.647448 44.5954721,31.1653389 C44.7891613,29.176411 45,26.147448 45,23 C45,19.852552 44.7891613,16.8225763 44.5954721,14.8336484 Z" id="Fill-8" fill="#ffffff"></path>
            </g>
        </g>
    </g>
</svg>